<?xml version="1.0" standalone="no"?>
<!DOCTYPE svg PUBLIC "-//W3C//DTD SVG 20010904//EN"
        "http://www.w3.org/TR/2001/REC-SVG-20010904/DTD/svg10.dtd">
<svg version="1.0" xmlns="http://www.w3.org/2000/svg"
     width="800.000000pt" height="800.000000pt" viewBox="0 0 800.000000 800.000000"
     preserveAspectRatio="xMidYMid meet">
    <metadata>
        Created by potrace 1.11, written by Peter Selinger 2001-2013
    </metadata>
    <g transform="translate(0.000000,800.000000) scale(0.100000,-0.100000)"
       fill="#000000" stroke="none">
        <path d="M5665 6565 c0 -207 -2 -379 -5 -383 -3 -4 -176 -7 -385 -7 l-380 0 0
-255 0 -255 385 -3 385 -2 0 -383 0 -382 258 -1 c255 -1 257 -1 258 20 1 11 2
183 3 381 l1 360 383 3 382 2 0 258 0 257 -380 0 c-248 0 -381 3 -383 10 -2 5
-3 178 -3 383 l1 372 -260 0 -260 0 0 -375z"/>
        <path d="M1050 3618 l0 -2558 68 0 c490 -3 5054 0 5059 3 5 3 8 751 8 1664
l-1 1658 -259 0 -260 0 0 -1395 c0 -767 -3 -1399 -7 -1405 -4 -7 -698 -10
-2049 -10 l-2043 0 0 2020 c-1 1111 1 2030 3 2042 l3 23 1407 2 1406 3 0 255
0 255 -1667 0 -1668 0 0 -2557z"/>
        <path d="M2845 4890 c-1 -3 -3 -119 -3 -257 l0 -253 52 0 c28 -1 143 -2 256
-3 l205 -2 0 -762 0 -763 -256 0 -256 0 1 -256 1 -256 725 0 c399 1 746 1 771
1 l47 1 0 255 1 255 -260 0 -259 0 0 1020 c0 561 -3 1021 -7 1021 -26 4 -1015
3 -1018 -1z"/>
    </g>
</svg>
